{"images":[{"uri":"3Dxy_Img_3.jpg","name":"3Dxy_Img_3.jpg"},{"uri":"3Dxy_Img_2.jpg","name":"3Dxy_Img_2.jpg"},{"uri":"3Dxy_Img_1.jpg","name":"3Dxy_Img_1.jpg"}],"accessors":[{"componentType":5126,"bufferView":0,"count":1,"type":"SCALAR","byteOffset":0},{"componentType":5123,"bufferView":1,"count":6498,"type":"SCALAR","byteOffset":0},{"componentType":5123,"bufferView":1,"count":894,"type":"SCALAR","byteOffset":12996},{"componentType":5123,"bufferView":1,"count":24,"type":"SCALAR","byteOffset":14784},{"componentType":5126,"max":[4.223188877105713,1.099448800086975,10.52850341796875],"bufferView":2,"count":1629,"type":"VEC3","min":[-4.221811294555664,-0.9560629725456238,-0.0005118110566399992],"byteOffset":0},{"componentType":5126,"bufferView":2,"count":1629,"type":"VEC3","byteOffset":12},{"componentType":5126,"bufferView":2,"count":1629,"type":"VEC2","byteOffset":24},{"componentType":5126,"max":[0.5996850728988647,0.02751968242228031,9.091691970825195],"bufferView":3,"count":223,"type":"VEC3","min":[-0.5971653461456299,-0.7657480239868164,8.177755355834961],"byteOffset":0},{"componentType":5126,"bufferView":3,"count":223,"type":"VEC3","byteOffset":12},{"componentType":5126,"bufferView":3,"count":223,"type":"VEC2","byteOffset":24},{"componentType":5126,"max":[0.5076771378517151,-0.3384252190589905,9.130118370056152],"bufferView":4,"count":12,"type":"VEC3","min":[-0.5058267712593079,-0.5657086372375488,8.742283821105957],"byteOffset":0},{"componentType":5126,"bufferView":4,"count":12,"type":"VEC3","byteOffset":12},{"componentType":5126,"bufferView":4,"count":12,"type":"VEC2","byteOffset":24}],"textures":[{"source":0,"sampler":0},{"source":1,"sampler":0},{"source":2,"sampler":0}],"buffers":[{"byteLength":74484,"uri":"buffer.bin"}],"bufferViews":[{"byteLength":4,"byteOffset":0,"buffer":0},{"byteLength":14832,"target":34963,"byteOffset":4,"buffer":0},{"byteLength":52128,"byteStride":32,"target":34962,"byteOffset":14836,"buffer":0},{"byteLength":7136,"byteStride":32,"target":34962,"byteOffset":66964,"buffer":0},{"byteLength":384,"byteStride":32,"target":34962,"byteOffset":74100,"buffer":0}],"samplers":[{"magFilter":9729,"minFilter":9987}],"scene":0,"nodes":[{"children":[1],"name":"RootNode"},{"rotation":[-0.70710676908493,0,0,0.70710676908493],"scale":[2.53999996185303,2.53999996185303,2.53999996185303],"children":[2,3,4],"name":"3DXY_group_002"},{"rotation":[-0.00000000000000000000000000000000335148537175003,0.00000000000000000000000000000000360181644464923,0.725548267364502,0.68817126750946],"scale":[0.0392219983041286,0.0392219983041286,0.0392219983041286],"name":"3DXY_geometry_004","translation":[0.00341728678904474,0.000204315176233649,0.000020065306671313],"mesh":0},{"rotation":[-0.00000000000000000000000000000000335148537175003,0.00000000000000000000000000000000360181644464923,0.725548267364502,0.68817126750946],"scale":[0.0392219983041286,0.0392219983041286,0.0392219983041286],"name":"3DXY_geometry_005","translation":[0.00341728678904474,0.000204315176233649,0.000020065306671313],"mesh":1},{"rotation":[-0.00000000000000000000000000000000335148537175003,0.00000000000000000000000000000000360181644464923,0.725548267364502,0.68817126750946],"scale":[0.0392219983041286,0.0392219983041286,0.0392219983041286],"name":"3DXY_geometry_006","translation":[0.00341728678904474,0.000204315176233649,0.000020065306671313],"mesh":2},{"children":[0],"name":"Pivot"}],"materials":[{"pbrMetallicRoughness":{"roughnessFactor":0.89,"baseColorFactor":[1,1,1,1],"baseColorTexture":{"index":2},"metallicFactor":0.400000005960464},"extensions":{"KHR_materials_specular":{"specularFactor":0.3}},"name":"3DXY_Material_1"},{"pbrMetallicRoughness":{"roughnessFactor":0.89,"baseColorFactor":[1,1,1,1],"baseColorTexture":{"index":1},"metallicFactor":0.400000005960464},"extensions":{"KHR_materials_specular":{"specularFactor":0.3}},"name":"3DXY_Material_2"},{"pbrMetallicRoughness":{"roughnessFactor":0.89,"baseColorFactor":[1,1,1,1],"baseColorTexture":{"index":0},"metallicFactor":0.21},"extensions":{"KHR_materials_specular":{"specularFactor":0.3}},"name":"3DXY_Material_3"}],"animations":[{"samplers":[],"channels":[],"name":"Take 001"}],"scenes":[{"nodes":[5],"name":"Root Scene"}],"asset":{"generator":"CG美术之家","source":"https://www.cgmszj.com/model/110189.html","version":"2.0"},"meshes":[{"primitives":[{"mode":4,"indices":1,"material":0,"attributes":{"POSITION":4,"TEXCOORD_0":6,"NORMAL":5}}],"name":"3DXY_geometry_004"},{"primitives":[{"mode":4,"indices":2,"material":1,"attributes":{"POSITION":7,"TEXCOORD_0":9,"NORMAL":8}}],"name":"3DXY_geometry_005"},{"primitives":[{"mode":4,"indices":3,"material":2,"attributes":{"POSITION":10,"TEXCOORD_0":12,"NORMAL":11}}],"name":"3DXY_geometry_006"}]}